<svg width="64" height="64" viewBox="0 0 64 64" fill="none" xmlns="http://www.w3.org/2000/svg">
<rect x="0.5" y="0.5" width="63" height="63" rx="31.5" stroke="black" stroke-opacity="0.1"/>
<path d="M43.25 19.5H33.25V14.5C33.25 14.1685 33.1183 13.8505 32.8839 13.6161C32.6495 13.3817 32.3315 13.25 32 13.25C31.6685 13.25 31.3505 13.3817 31.1161 13.6161C30.8817 13.8505 30.75 14.1685 30.75 14.5V19.5H20.75C19.4239 19.5 18.1521 20.0268 17.2145 20.9645C16.2768 21.9021 15.75 23.1739 15.75 24.5V42C15.75 43.3261 16.2768 44.5979 17.2145 45.5355C18.1521 46.4732 19.4239 47 20.75 47H43.25C44.5761 47 45.8479 46.4732 46.7855 45.5355C47.7232 44.5979 48.25 43.3261 48.25 42V24.5C48.25 23.1739 47.7232 21.9021 46.7855 20.9645C45.8479 20.0268 44.5761 19.5 43.25 19.5ZM45.75 42C45.75 42.663 45.4866 43.2989 45.0178 43.7678C44.5489 44.2366 43.913 44.5 43.25 44.5H20.75C20.087 44.5 19.4511 44.2366 18.9822 43.7678C18.5134 43.2989 18.25 42.663 18.25 42V24.5C18.25 23.837 18.5134 23.2011 18.9822 22.7322C19.4511 22.2634 20.087 22 20.75 22H43.25C43.913 22 44.5489 22.2634 45.0178 22.7322C45.4866 23.2011 45.75 23.837 45.75 24.5V42ZM37.625 33.25H26.375C25.2147 33.25 24.1019 33.7109 23.2814 34.5314C22.4609 35.3519 22 36.4647 22 37.625C22 38.7853 22.4609 39.8981 23.2814 40.7186C24.1019 41.5391 25.2147 42 26.375 42H37.625C38.7853 42 39.8981 41.5391 40.7186 40.7186C41.5391 39.8981 42 38.7853 42 37.625C42 36.4647 41.5391 35.3519 40.7186 34.5314C39.8981 33.7109 38.7853 33.25 37.625 33.25ZM33.25 35.75V39.5H30.75V35.75H33.25ZM24.5 37.625C24.5 37.1277 24.6975 36.6508 25.0492 36.2992C25.4008 35.9475 25.8777 35.75 26.375 35.75H28.25V39.5H26.375C25.8777 39.5 25.4008 39.3025 25.0492 38.9508C24.6975 38.5992 24.5 38.1223 24.5 37.625ZM37.625 39.5H35.75V35.75H37.625C38.1223 35.75 38.5992 35.9475 38.9508 36.2992C39.3025 36.6508 39.5 37.1277 39.5 37.625C39.5 38.1223 39.3025 38.5992 38.9508 38.9508C38.5992 39.3025 38.1223 39.5 37.625 39.5ZM23.25 28.875C23.25 28.5042 23.36 28.1416 23.566 27.8333C23.772 27.525 24.0649 27.2846 24.4075 27.1427C24.7501 27.0008 25.1271 26.9637 25.4908 27.036C25.8545 27.1084 26.1886 27.287 26.4508 27.5492C26.713 27.8114 26.8916 28.1455 26.964 28.5092C27.0363 28.8729 26.9992 29.2499 26.8573 29.5925C26.7154 29.9351 26.475 30.228 26.1667 30.434C25.8584 30.64 25.4958 30.75 25.125 30.75C24.6277 30.75 24.1508 30.5525 23.7992 30.2008C23.4475 29.8492 23.25 29.3723 23.25 28.875ZM37 28.875C37 28.5042 37.11 28.1416 37.316 27.8333C37.522 27.525 37.8149 27.2846 38.1575 27.1427C38.5001 27.0008 38.8771 26.9637 39.2408 27.036C39.6045 27.1084 39.9386 27.287 40.2008 27.5492C40.463 27.8114 40.6416 28.1455 40.714 28.5092C40.7863 28.8729 40.7492 29.2499 40.6073 29.5925C40.4654 29.9351 40.225 30.228 39.9167 30.434C39.6084 30.64 39.2458 30.75 38.875 30.75C38.3777 30.75 37.9008 30.5525 37.5492 30.2008C37.1975 29.8492 37 29.3723 37 28.875Z" fill="#343330"/>
</svg>
